<mxfile host="app.diagrams.net" modified="2023-08-15T08:37:04.205Z" agent="Mozilla/5.0 (Macintosh; Intel Mac OS X 10_15_7) AppleWebKit/605.1.15 (KHTML, like Gecko) Version/17.0 Safari/605.1.15" etag="Ky56wbWuMQ6tW-2UGpQi" version="21.6.8" type="github">
  <diagram name="第 1 页" id="jkunulA__9K-0tW-B99E">
    <mxGraphModel dx="954" dy="622" grid="1" gridSize="10" guides="1" tooltips="1" connect="1" arrows="1" fold="1" page="1" pageScale="1" pageWidth="827" pageHeight="1169" math="0" shadow="0">
      <root>
        <mxCell id="0" />
        <mxCell id="1" parent="0" />
        <mxCell id="JXAITl1LGF1TgolLdxRv-3" value="" style="edgeStyle=orthogonalEdgeStyle;rounded=0;orthogonalLoop=1;jettySize=auto;html=1;" edge="1" parent="1" source="JXAITl1LGF1TgolLdxRv-1" target="JXAITl1LGF1TgolLdxRv-2">
          <mxGeometry relative="1" as="geometry" />
        </mxCell>
        <mxCell id="JXAITl1LGF1TgolLdxRv-5" value="" style="edgeStyle=orthogonalEdgeStyle;rounded=0;orthogonalLoop=1;jettySize=auto;html=1;" edge="1" parent="1" source="JXAITl1LGF1TgolLdxRv-1" target="JXAITl1LGF1TgolLdxRv-4">
          <mxGeometry relative="1" as="geometry" />
        </mxCell>
        <mxCell id="JXAITl1LGF1TgolLdxRv-1" value="" style="rounded=0;whiteSpace=wrap;html=1;" vertex="1" parent="1">
          <mxGeometry x="170" y="250" width="120" height="60" as="geometry" />
        </mxCell>
        <mxCell id="JXAITl1LGF1TgolLdxRv-2" value="" style="rounded=0;whiteSpace=wrap;html=1;" vertex="1" parent="1">
          <mxGeometry x="520" y="220" width="120" height="60" as="geometry" />
        </mxCell>
        <mxCell id="JXAITl1LGF1TgolLdxRv-4" value="" style="ellipse;whiteSpace=wrap;html=1;rounded=0;" vertex="1" parent="1">
          <mxGeometry x="590" y="370" width="80" height="80" as="geometry" />
        </mxCell>
        <mxCell id="JXAITl1LGF1TgolLdxRv-6" value="" style="rounded=0;whiteSpace=wrap;html=1;" vertex="1" parent="1">
          <mxGeometry x="410" y="440" width="120" height="60" as="geometry" />
        </mxCell>
        <mxCell id="JXAITl1LGF1TgolLdxRv-7" value="" style="shape=flexArrow;endArrow=classic;html=1;rounded=0;exitX=0.992;exitY=0.9;exitDx=0;exitDy=0;exitPerimeter=0;entryX=0;entryY=0;entryDx=0;entryDy=0;" edge="1" parent="1" source="JXAITl1LGF1TgolLdxRv-1" target="JXAITl1LGF1TgolLdxRv-6">
          <mxGeometry width="50" height="50" relative="1" as="geometry">
            <mxPoint x="390" y="490" as="sourcePoint" />
            <mxPoint x="440" y="440" as="targetPoint" />
          </mxGeometry>
        </mxCell>
      </root>
    </mxGraphModel>
  </diagram>
</mxfile>
